<svg width="26" height="26" viewBox="0 0 26 26" fill="none" xmlns="http://www.w3.org/2000/svg">
<path d="M17.8478 5.85872L20.1412 8.15214M19.3222 3.83831L13.1179 10.0426C12.7973 10.3627 12.5787 10.7705 12.4896 11.2147L11.9165 14.0834L14.7852 13.5092C15.2293 13.4204 15.6367 13.2026 15.9573 12.882L22.1616 6.67772C22.348 6.49128 22.4959 6.26995 22.5968 6.02636C22.6977 5.78276 22.7496 5.52168 22.7496 5.25801C22.7496 4.99435 22.6977 4.73327 22.5968 4.48967C22.4959 4.24608 22.348 4.02475 22.1616 3.83831C21.9751 3.65187 21.7538 3.50398 21.5102 3.40308C21.2666 3.30218 21.0055 3.25024 20.7419 3.25024C20.4782 3.25024 20.2171 3.30218 19.9735 3.40308C19.7299 3.50398 19.5086 3.65187 19.3222 3.83831Z" stroke="#5577FF" stroke-linecap="round" stroke-linejoin="round"/>
<path d="M20.5833 16.2501V19.5001C20.5833 20.0747 20.355 20.6258 19.9487 21.0321C19.5423 21.4385 18.9912 21.6667 18.4166 21.6667H6.49992C5.92528 21.6667 5.37418 21.4385 4.96785 21.0321C4.56153 20.6258 4.33325 20.0747 4.33325 19.5001V7.58341C4.33325 7.00878 4.56153 6.45768 4.96785 6.05135C5.37418 5.64502 5.92528 5.41675 6.49992 5.41675H9.74992" stroke="#5577FF" stroke-linecap="round" stroke-linejoin="round"/>
</svg>
