<svg width="16" height="19" viewBox="0 0 16 19" fill="none" xmlns="http://www.w3.org/2000/svg">
<g clip-path="url(#clip0_178_637)">
<path d="M3.42857 0C1.53571 0 0 1.5957 0 3.5625V15.4375C0 17.4043 1.53571 19 3.42857 19H14.8571C15.4893 19 16 18.4693 16 17.8125C16 17.1557 15.4893 16.625 14.8571 16.625V14.25C15.4893 14.25 16 13.7193 16 13.0625V1.1875C16 0.530664 15.4893 0 14.8571 0H13.7143H3.42857ZM3.42857 14.25H12.5714V16.625H3.42857C2.79643 16.625 2.28571 16.0943 2.28571 15.4375C2.28571 14.7807 2.79643 14.25 3.42857 14.25ZM4.57143 5.34375C4.57143 5.01719 4.82857 4.75 5.14286 4.75H12C12.3143 4.75 12.5714 5.01719 12.5714 5.34375C12.5714 5.67031 12.3143 5.9375 12 5.9375H5.14286C4.82857 5.9375 4.57143 5.67031 4.57143 5.34375ZM5.14286 7.125H12C12.3143 7.125 12.5714 7.39219 12.5714 7.71875C12.5714 8.04531 12.3143 8.3125 12 8.3125H5.14286C4.82857 8.3125 4.57143 8.04531 4.57143 7.71875C4.57143 7.39219 4.82857 7.125 5.14286 7.125Z" fill="#5577FF"/>
</g>
<defs>
<clipPath id="clip0_178_637">
<rect width="16" height="19" fill="white"/>
</clipPath>
</defs>
</svg>
