<svg width="22" height="22" viewBox="0 0 22 22" fill="none" xmlns="http://www.w3.org/2000/svg">
<path d="M11.0001 1.76782C13.0318 1.76782 14.9804 2.57493 16.417 4.01159C17.8537 5.44826 18.6608 7.39679 18.6608 9.42854C18.6608 12.6657 16.3861 16.1935 11.8958 20.0498C11.6461 20.2643 11.3278 20.3821 10.9986 20.3818C10.6694 20.3815 10.3513 20.2632 10.102 20.0483L9.805 19.7905C5.51343 16.0348 3.33936 12.5934 3.33936 9.42854C3.33936 7.39679 4.14646 5.44826 5.58313 4.01159C7.01979 2.57493 8.96832 1.76782 11.0001 1.76782ZM11.0001 6.48211C10.2186 6.48211 9.46919 6.79253 8.91663 7.3451C8.36407 7.89766 8.05364 8.64709 8.05364 9.42854C8.05364 10.21 8.36407 10.9594 8.91663 11.512C9.46919 12.0645 10.2186 12.375 11.0001 12.375C11.7815 12.375 12.5309 12.0645 13.0835 11.512C13.6361 10.9594 13.9465 10.21 13.9465 9.42854C13.9465 8.64709 13.6361 7.89766 13.0835 7.3451C12.5309 6.79253 11.7815 6.48211 11.0001 6.48211Z" fill="#5577FF"/>
</svg>
